#!OML:ASF X:\für Bonn\!DataBase\2005_08_12_Daniel\c3d\Daniel.ASF
:FULLY-SPECIFIED
:DEGREES
125
root -8.59941 16.186 18.3647 -178.945 56.661 542.296
lowerback 15.8749 -0.569572 -5.22089
upperback 3.53955 -1.44673 -3.35015
thorax -5.06948 -0.507728 -0.319174
lowerneck -5.664 4.81477 -2.57945
upperneck -3.63051 6.69434 -7.3254
head -0.00487259 3.44913 -1.72233
rclavicle 2.14687e-014 -5.24792e-014
rhumerus -52.7203 14.1067 -105.327
rradius 75.2695
rwrist 1.97475
rhand -31.2904 32.8991
rfingers 7.12502
rthumb -4.56359 2.96827
lclavicle 2.14687e-014 -5.24792e-014
lhumerus -61.6517 9.51645 92.0607
lradius 109.818
lwrist 19.9197
lhand -15.3457 -11.2222
lfingers 7.12502
lthumb 10.8313 18.4785
rfemur -0.734919 -8.33078 9.31161
rtibia 79.5899
rfoot -1.03608 -0.710937
rtoes -15.3982
lfemur -23.4382 6.96324 -38.4575
ltibia 55.9697
lfoot -30.6622 6.27668
ltoes 17.0525
126
root -8.37831 16.069 18.2386 -179.291 55.9339 542.139
lowerback 16.0835 -0.752006 -5.56758
upperback 3.61825 -1.74236 -3.37915
thorax -5.07763 -0.642541 -0.0955496
lowerneck -5.55036 4.98918 -2.23575
upperneck -3.86103 6.8912 -7.6516
head -0.0648054 3.55523 -1.88712
rclavicle 6.08281e-014 -3.18055e-014
rhumerus -52.6506 12.9261 -104.429
rradius 73.7528
rwrist 2.49401
rhand -31.8045 32.664
rfingers 7.12502
rthumb -5.05994 2.74438
lclavicle 6.08281e-014 -3.18055e-014
lhumerus -60.207 9.80496 92.1206
lradius 110.361
lwrist 19.3302
lhand -15.3865 -11.3806
lfingers 7.12502
lthumb 10.792 18.3221
rfemur -2.50048 -8.82088 8.59884
rtibia 82.4829
rfoot -1.84491 -1.32972
rtoes -13.736
lfemur -22.5282 6.51413 -38.4891
ltibia 57.0511
lfoot -32.2903 6.04221
ltoes 16.7349
127
root -8.15632 15.9788 18.1068 -179.389 55.1807 541.928
lowerback 16.0237 -0.957057 -5.96607
upperback 3.63177 -2.067 -3.39949
thorax -5.00304 -0.796118 0.16897
lowerneck -5.48633 5.20179 -1.82308
upperneck -4.05314 7.14032 -8.03146
head -0.0969062 3.68411 -2.07894
rclavicle 1.98785e-015 -1.90833e-014
rhumerus -52.6718 11.875 -103.46
rradius 72.2774
rwrist 2.82635
rhand -32.2482 32.6783
rfingers 7.12502
rthumb -5.48835 2.76936
lclavicle 1.98785e-015 -1.90833e-014
lhumerus -58.7309 10.1032 92.255
lradius 110.92
lwrist 18.4284
lhand -15.5342 -11.7295
lfingers 7.12502
lthumb 10.6495 17.9806
rfemur -4.65971 -9.2256 8.07995
rtibia 85.1426
rfoot -2.61672 -2.05802
rtoes -11.9997
lfemur -21.8116 6.13398 -38.5463
ltibia 57.8764
lfoot -33.8181 5.7518
ltoes 16.0091
128
root -7.94032 15.9028 17.9701 -179.392 54.4117 541.71
lowerback 15.8228 -1.20483 -6.31384
upperback 3.64129 -2.42954 -3.40445
thorax -4.8517 -0.97301 0.424184
lowerneck -5.33628 5.39702 -1.73721
upperneck -4.32342 7.37524 -8.2109
head -0.187928 3.81514 -2.15668
rclavicle 1.55052e-014 1.59028e-014
rhumerus -53.0639 10.8856 -102.471
rradius 71.178
rwrist 3.015
rhand -32.7234 32.9472
rfingers 7.12502
rthumb -5.94714 3.05064
lclavicle 1.55052e-014 1.59028e-014
lhumerus -57.1743 10.4209 92.4905
lradius 111.502
lwrist 17.43
lhand -15.7213 -12.1673
lfingers 7.12502
lthumb 10.469 17.552
rfemur -7.02833 -9.67272 7.60842
rtibia 87.664
rfoot -3.42834 -2.60827
rtoes -10.6675
lfemur -21.0793 5.94215 -38.5616
ltibia 58.474
lfoot -35.2375 5.12969
ltoes 15.3289
129
root -7.72539 15.8436 17.8288 -179.278 53.6724 541.566
lowerback 15.6051 -1.44126 -6.61736
upperback 3.61382 -2.77265 -3.3809
thorax -4.72826 -1.14215 0.678026
lowerneck -5.31093 5.58707 -1.63782
upperneck -4.41036 7.61797 -8.36838
head -0.200367 3.93943 -2.22195
rclavicle 1.78906e-014 6.20208e-014
rhumerus -53.7219 9.85917 -101.392
rradius 70.4972
rwrist 3.13313
rhand -33.015 33.2885
rfingers 7.12502
rthumb -6.22873 3.40007
lclavicle 1.78906e-014 6.20208e-014
lhumerus -55.6294 10.6023 92.7343
lradius 112.148
lwrist 16.2956
lhand -16.1182 -12.4944
lfingers 7.12502
lthumb 10.0861 17.2439
rfemur -9.59967 -10.0218 7.32762
rtibia 89.9816
rfoot -4.26634 -3.01096
rtoes -9.51968
lfemur -20.2782 5.90708 -38.5032
ltibia 58.8191
lfoot -36.4702 4.38999
ltoes 14.6022
130
root -7.51312 15.798 17.6865 -178.975 52.9048 541.547
lowerback 15.3495 -1.69571 -6.82069
upperback 3.55887 -3.1244 -3.33955
thorax -4.61393 -1.31822 0.89271
lowerneck -5.38708 5.76861 -1.57299
upperneck -4.38889 7.86046 -8.41919
head -0.167456 4.05644 -2.24091
rclavicle 3.69739e-014 1.59028e-014
rhumerus -54.3826 8.85448 -100.358
rradius 70.0632
rwrist 3.01359
rhand -33.1159 33.6914
rfingers 7.12502
rthumb -6.32609 3.80589
lclavicle 3.69739e-014 1.59028e-014
lhumerus -53.925 10.6908 92.9772
lradius 112.734
lwrist 15.2493
lhand -16.5893 -12.784
lfingers 7.12502
lthumb 9.63163 16.9758
rfemur -12.4705 -10.2896 7.32047
rtibia 92.1375
rfoot -4.94437 -3.33365
rtoes -8.05462
lfemur -19.4515 5.85437 -38.3239
ltibia 58.9409
lfoot -37.5388 3.65247
ltoes 13.5683
131
root -7.3015 15.7671 17.539 -178.52 52.1189 541.707
lowerback 15.1117 -1.98091 -6.89217
upperback 3.48544 -3.50109 -3.26953
thorax -4.53094 -1.50852 1.06675
lowerneck -5.54593 5.93475 -1.52567
upperneck -4.29532 8.09069 -8.42345
head -0.101188 4.16259 -2.23727
rclavicle -6.71892e-014 -5.725e-014
rhumerus -55.3066 8.0613 -99.4432
rradius 70.1431
rwrist 2.81208
rhand -33.1066 33.8814
rfingers 7.12502
rthumb -6.31711 3.99564
lclavicle -6.71892e-014 -5.725e-014
lhumerus -52.3302 10.7531 93.1991
lradius 113.246
lwrist 14.4361
lhand -17.1688 -12.9731
lfingers 7.12502
lthumb 9.07246 16.8118
rfemur -15.3776 -10.4909 7.57404
rtibia 93.9438
rfoot -5.48475 -3.57628
rtoes -6.90766
lfemur -18.5197 5.76188 -38.0012
ltibia 58.8248
lfoot -38.4335 2.98566
ltoes 12.8067
132
root -7.08863 15.7503 17.363 -177.849 51.371 542.086
lowerback 14.6815 -2.307 -6.60302
upperback 3.39809 -3.86897 -3.21193
thorax -4.38355 -1.7038 1.01537
lowerneck -5.61192 6.10994 -1.42963
upperneck -4.17644 8.32614 -8.459
head -0.0384637 4.27086 -2.25416
rclavicle 1.0297e-013 -3.02153e-014
rhumerus -56.3518 7.44199 -98.6308
rradius 70.5106
rwrist 2.58936
rhand -33.0441 33.8014
rfingers 7.12502
rthumb -6.25676 3.91379
lclavicle 1.0297e-013 -3.02153e-014
lhumerus -51.044 10.5706 93.3264
lradius 113.954
lwrist 13.9667
lhand -18.0713 -12.9949
lfingers 7.12502
lthumb 8.20149 16.826
rfemur -18.1431 -10.5515 7.98414
rtibia 95.2326
rfoot -5.91634 -3.69891
rtoes -6.6523
lfemur -17.4504 5.60947 -37.5985
ltibia 58.4473
lfoot -39.1967 2.52131
ltoes 11.702
